<?xml version="1.0" encoding="UTF-8" standalone="no"?><!DOCTYPE svg PUBLIC "-//W3C//DTD SVG 1.1//EN" "http://www.w3.org/Graphics/SVG/1.1/DTD/svg11.dtd"><svg width="100%" height="100%" viewBox="0 0 1280 150" version="1.1" xmlns="http://www.w3.org/2000/svg" xmlns:xlink="http://www.w3.org/1999/xlink" xml:space="preserve" xmlns:serif="http://www.serif.com/" style="fill-rule:evenodd;clip-rule:evenodd;stroke-linejoin:round;stroke-miterlimit:2;"><g id="Layer2"><path d="M550.067,114.284c-6.682,-15.438 -10.094,-25.474 -10.242,-47.52c-1.888,30.884 -0.267,32.987 6.97,48.048l3.272,-0.528Z" style="fill:#606c38;"/><path d="M550.13,114.679l-3.271,0.528c-0.175,0.028 -0.348,-0.062 -0.425,-0.222c-7.266,-15.124 -8.904,-17.234 -7.009,-48.245c0.014,-0.216 0.195,-0.382 0.411,-0.376c0.215,0.006 0.387,0.182 0.389,0.397c0.148,21.974 3.549,31.977 10.209,47.364c0.049,0.113 0.043,0.243 -0.017,0.351c-0.059,0.108 -0.165,0.183 -0.287,0.203Zm-0.634,-0.708c-5.551,-12.864 -8.807,-22.062 -9.772,-37.818c-0.941,21.878 1.01,25.133 7.302,38.216l2.47,-0.398Z" style="fill:#606c38;"/><path d="M543.967,127.684c6.874,-17.29 14.89,-36.942 17.519,-76.835c-4.054,25.615 -14.217,57.464 -20.77,75.567l3.251,1.268Z" style="fill:#606c38;"/><path d="M543.822,128.056l-3.252,-1.268c-0.202,-0.079 -0.304,-0.305 -0.231,-0.509c6.548,-18.084 16.701,-49.902 20.752,-75.492c0.033,-0.211 0.227,-0.359 0.439,-0.335c0.213,0.024 0.369,0.21 0.355,0.424c-2.633,39.955 -10.661,59.638 -17.546,76.955c-0.082,0.205 -0.312,0.305 -0.517,0.225Zm-0.08,-0.889c6.345,-15.954 13.62,-34.021 16.709,-68.198c-4.64,23.792 -13.34,50.91 -19.227,67.216l2.518,0.982Z" style="fill:#606c38;"/><path d="M542.739,128.884c6.23,-6.714 16.798,-24.768 18.991,-47.241c-7.174,21.999 -9.164,22.229 -21.014,40.003l2.023,7.238Z" style="fill:#606c38;"/><path d="M542.353,128.991l-2.023,-7.237c-0.031,-0.113 -0.012,-0.233 0.053,-0.33c11.822,-17.731 13.81,-17.959 20.967,-39.905c0.063,-0.194 0.263,-0.309 0.462,-0.267c0.2,0.042 0.336,0.227 0.317,0.43c-2.205,22.586 -12.835,40.727 -19.097,47.474c-0.099,0.106 -0.247,0.15 -0.388,0.116c-0.14,-0.034 -0.252,-0.141 -0.291,-0.281Zm0.576,-0.913c5.866,-6.636 15.068,-22.576 17.928,-42.534c-6.196,18.311 -8.634,19.579 -19.707,36.171l1.779,6.363Z" style="fill:#606c38;"/><path d="M446.035,128.539c6.23,-6.714 16.23,-21.738 18.423,-44.211c-7.174,21.999 -7.649,24.123 -19.5,41.897l1.077,2.314Z" style="fill:#606c38;"/><path d="M445.672,128.707l-1.076,-2.314c-0.059,-0.126 -0.048,-0.274 0.03,-0.39c11.822,-17.732 12.295,-19.852 19.452,-41.799c0.063,-0.194 0.262,-0.309 0.462,-0.267c0.2,0.041 0.336,0.227 0.316,0.43c-2.205,22.593 -12.264,37.694 -18.528,44.444c-0.091,0.097 -0.224,0.143 -0.356,0.123c-0.131,-0.021 -0.244,-0.106 -0.3,-0.227Zm0.472,-0.881c5.825,-6.447 14.589,-19.83 17.426,-39.481c-6.004,18.414 -7.131,21.372 -18.154,37.914l0.728,1.567Z" style="fill:#606c38;"/><path d="M450.958,111.561c6.874,-17.29 9.222,-12.557 6.765,-48.52c-1.289,30.062 -3.462,29.149 -10.016,47.252l3.251,1.268Z" style="fill:#606c38;"/><path d="M450.815,111.928l-3.252,-1.268c-0.199,-0.077 -0.3,-0.3 -0.227,-0.502c6.537,-18.057 8.706,-17.146 9.993,-47.134c0.009,-0.209 0.18,-0.375 0.389,-0.378c0.21,-0.002 0.385,0.159 0.399,0.368c2.466,36.091 0.107,31.341 -6.792,48.692c-0.08,0.202 -0.308,0.301 -0.51,0.222Zm-0.078,-0.878c6.263,-15.617 8.679,-12.916 7.035,-41.041c-1.333,22.997 -3.64,23.781 -9.562,40.056l2.527,0.985Z" style="fill:#606c38;"/><path d="M450.688,105.368c-2.885,-8.693 -10.305,-33.387 -2.981,-54.746c-2.595,22.992 -0.431,31.166 2.981,52.254l0,2.492Z" style="fill:#606c38;"/><path d="M447.243,60.166l-0.377,-5.316c-4.685,18.415 0.415,38.352 3.395,47.89l-0.609,-8.587c0.442,2.66 0.923,5.516 1.431,8.659c0.004,0.021 0.005,0.042 0.005,0.064l0,2.492c0,0.196 -0.142,0.363 -0.336,0.395c-0.193,0.031 -0.381,-0.083 -0.443,-0.269c-2.899,-8.734 -10.339,-33.544 -2.981,-55.002c0.067,-0.193 0.268,-0.305 0.467,-0.261c0.199,0.045 0.332,0.233 0.309,0.436c-0.392,3.473 -0.675,6.607 -0.861,9.499Zm-0,-0l2.409,33.987c-2.067,-12.455 -3.27,-20.63 -2.409,-33.987Z" style="fill:#606c38;"/><path d="M454.988,118.546c-2.886,-8.693 -7.788,-26.859 -0.464,-48.218c-2.595,22.992 -0.88,24.028 2.532,45.115l-2.068,3.103Z" style="fill:#606c38;"/><path d="M454.608,118.672c-2.901,-8.739 -7.825,-27.002 -0.463,-48.474c0.067,-0.193 0.268,-0.305 0.467,-0.261c0.199,0.045 0.332,0.233 0.309,0.436c-2.589,22.937 -0.874,23.969 2.53,45.007c0.016,0.099 -0.006,0.201 -0.062,0.285l-2.069,3.103c-0.084,0.127 -0.234,0.195 -0.386,0.175c-0.151,-0.021 -0.278,-0.126 -0.326,-0.271Zm0.503,-1.032l1.525,-2.288c-3.19,-19.674 -4.885,-21.863 -2.947,-41c-5.307,18.937 -1.283,34.932 1.422,43.288Z" style="fill:#606c38;"/><path d="M1039.01,107.19c9.152,-24.439 9.159,-30.207 12.022,-60.614c0.621,33.658 -3.295,43.632 -9.324,64.736l-2.698,-4.122Z" style="fill:#708f53;"/><path d="M1038.64,107.049c9.137,-24.397 9.141,-30.155 11.999,-60.51c0.02,-0.211 0.201,-0.37 0.413,-0.362c0.212,0.008 0.381,0.18 0.385,0.392c0.622,33.718 -3.3,43.711 -9.339,64.853c-0.043,0.15 -0.17,0.262 -0.325,0.285c-0.154,0.024 -0.308,-0.045 -0.394,-0.176l-2.699,-4.122c-0.07,-0.107 -0.084,-0.24 -0.04,-0.36Zm0.821,0.091l2.109,3.221c5.384,-18.766 9.023,-28.846 9.129,-55.849c-2.207,23.73 -2.991,30.577 -11.238,52.628Z" style="fill:#708f53;"/><path d="M1045.05,111.312c-4.504,-15.123 -5.093,-24.262 -5.973,-45.213c2.97,20.94 4.267,29.427 8.44,45.213l-2.467,-0Z" style="fill:#708f53;"/><path d="M1044.67,111.426c-4.514,-15.156 -5.108,-24.314 -5.989,-45.311c-0.009,-0.213 0.151,-0.395 0.363,-0.415c0.212,-0.019 0.402,0.131 0.432,0.342c2.967,20.92 4.262,29.398 8.43,45.168c0.032,0.12 0.006,0.248 -0.069,0.346c-0.076,0.098 -0.193,0.156 -0.317,0.156l-2.467,-0c-0.177,-0 -0.333,-0.116 -0.383,-0.286Zm0.681,-0.514l1.649,-0c-3.496,-13.294 -4.951,-21.467 -7.155,-36.643c0.749,15.294 1.716,23.839 5.506,36.643Z" style="fill:#708f53;"/><path d="M1043.53,103.548c-4.758,-6.14 -14.728,-22.742 -14.888,-41.891c4.403,19.123 6.067,19.468 14.738,35.375l0.15,6.516Z" style="fill:#708f53;"/><path d="M1043.22,103.793c-4.784,-6.176 -14.81,-22.874 -14.971,-42.133c-0.002,-0.204 0.151,-0.376 0.353,-0.4c0.203,-0.024 0.391,0.108 0.437,0.307c4.39,19.069 6.052,19.412 14.699,35.273c0.031,0.056 0.047,0.119 0.049,0.183l0.15,6.516c0.003,0.173 -0.104,0.328 -0.267,0.386c-0.162,0.058 -0.344,0.005 -0.45,-0.132Zm-0.112,-1.48l-0.119,-5.175c-7.981,-14.633 -10.02,-16.095 -13.746,-31.249c1.346,16.291 9.306,30.19 13.865,36.424Z" style="fill:#708f53;"/><path d="M1073.97,109.881c-4.504,-15.123 -11.979,-33.167 -7.194,-63.361c-1.176,25.492 5.864,46.75 10.036,62.535l-2.842,0.826Z" style="fill:#606c38;"/><path d="M1073.6,109.994c-4.517,-15.165 -12.004,-33.259 -7.206,-63.535c0.033,-0.207 0.222,-0.353 0.43,-0.331c0.209,0.021 0.364,0.201 0.354,0.411c-1.173,25.443 5.859,46.66 10.024,62.415c0.055,0.207 -0.066,0.42 -0.272,0.48l-2.842,0.826c-0.208,0.061 -0.427,-0.058 -0.488,-0.266Zm0.644,-0.601l2.096,-0.609c-3.8,-14.303 -9.849,-33.034 -10.075,-55.295c-2.679,25.792 3.835,42.092 7.979,55.904Z" style="fill:#606c38;"/><path d="M1078.97,109.699c3.092,-7.126 9.781,-22.989 5.204,-41.583c0.459,19.618 -0.545,21.922 -5.017,39.478l-0.187,2.105Z" style="fill:#606c38;"/><path d="M1080.82,99.466l3.038,-21.354c0.042,-2.805 0.009,-6.046 -0.083,-9.987c-0.005,-0.204 0.145,-0.379 0.347,-0.405c0.202,-0.027 0.392,0.102 0.441,0.3c4.605,18.708 -2.114,34.669 -5.225,41.838c-0.079,0.18 -0.276,0.277 -0.466,0.229c-0.19,-0.049 -0.317,-0.228 -0.3,-0.423l0.188,-2.106c0.002,-0.021 0.005,-0.042 0.011,-0.063c0.787,-3.091 1.466,-5.708 2.049,-8.029Z" style="fill:#606c38;"/><path d="M1067.92,102.017c3.093,-7.126 8.603,-22.103 4.025,-40.697c0.46,19.618 -1.067,20.363 -5.538,37.92l1.513,2.777Z" style="fill:#606c38;"/><path d="M1067.57,102.208l-1.513,-2.777c-0.049,-0.088 -0.062,-0.192 -0.037,-0.29c4.459,-17.507 5.985,-18.249 5.526,-37.812c-0.004,-0.204 0.145,-0.378 0.348,-0.405c0.202,-0.027 0.392,0.102 0.441,0.3c4.606,18.711 -0.935,33.782 -4.047,40.952c-0.061,0.14 -0.196,0.233 -0.349,0.24c-0.152,0.007 -0.296,-0.074 -0.369,-0.208Zm0.308,-1.106c2.872,-6.78 7.316,-19.639 4.539,-35.595c0.139,15.641 -1.47,17.559 -5.583,33.679l1.044,1.916Z" style="fill:#606c38;"/><path d="M1000.09,112.086c8.636,-24.626 9.656,-29.121 11.88,-59.582c1.328,33.638 -2.747,43.699 -8.331,64.925l-3.549,-5.343Z" style="fill:#606c38;"/><path d="M999.15,111.755c8.599,-24.519 9.613,-28.995 11.827,-59.323c0.039,-0.53 0.484,-0.936 1.014,-0.927c0.53,0.008 0.962,0.43 0.982,0.96c1.334,33.789 -2.754,43.897 -8.363,65.219c-0.1,0.381 -0.415,0.667 -0.803,0.732c-0.389,0.064 -0.779,-0.105 -0.997,-0.433l-3.549,-5.344c-0.174,-0.261 -0.215,-0.588 -0.111,-0.884Zm2.052,0.192l2.044,3.077c3.799,-14.22 6.805,-23.621 7.703,-39.901c-1.596,12.759 -3.919,20.192 -9.747,36.824Z" style="fill:#606c38;"/><path d="M1000.8,108.744c-3.321,-15.426 -8.07,-33.504 -4.669,-67.238c1.343,21.107 4.627,50.574 7.567,66.634l-2.898,0.604Z" style="fill:#606c38;"/><path d="M999.82,108.955c-3.337,-15.497 -8.104,-33.659 -4.687,-67.55c0.053,-0.518 0.493,-0.909 1.014,-0.899c0.52,0.009 0.946,0.417 0.979,0.936c1.341,21.071 4.618,50.486 7.553,66.518c0.097,0.534 -0.249,1.049 -0.78,1.159l-2.897,0.604c-0.539,0.113 -1.066,-0.231 -1.182,-0.768Zm1.745,-1.392l0.973,-0.203c-2.312,-12.981 -4.808,-33.906 -6.393,-52.367c-1.067,24.626 2.605,39.618 5.42,52.57Z" style="fill:#606c38;"/><path d="M1004.69,108.142c-6.092,-4.819 -17.288,-18.582 -22.037,-37.133c8.862,17.508 10.56,17.444 22.795,30.805l-0.758,6.328Z" style="fill:#606c38;"/><path d="M1004.44,108.456c-6.128,-4.848 -17.399,-18.687 -22.177,-37.348c-0.05,-0.197 0.056,-0.401 0.247,-0.473c0.191,-0.072 0.405,0.011 0.498,0.194c8.837,17.458 10.533,17.391 22.733,30.715c0.079,0.086 0.116,0.202 0.102,0.318l-0.758,6.328c-0.017,0.144 -0.111,0.267 -0.244,0.322c-0.134,0.055 -0.288,0.034 -0.401,-0.056Zm-0.062,-1.083l0.649,-5.424c-11.26,-12.285 -13.565,-13.189 -20.885,-27.166c5.012,15.944 14.53,27.809 20.236,32.59Z" style="fill:#606c38;"/><path d="M122.99,79.008c5.411,-11.704 6.083,-13.851 7.975,-28.477c0.058,16.218 -2.463,20.991 -6.071,31.112l-1.904,-2.635Z" style="fill:#606c38;"/><path d="M122.082,78.589c5.355,-11.585 6.018,-13.71 7.891,-28.187c0.068,-0.522 0.529,-0.902 1.054,-0.869c0.526,0.033 0.936,0.468 0.938,0.994c0.058,16.394 -2.482,21.221 -6.129,31.452c-0.125,0.35 -0.434,0.602 -0.801,0.654c-0.368,0.053 -0.734,-0.103 -0.952,-0.404l-1.904,-2.635c-0.211,-0.293 -0.248,-0.677 -0.097,-1.005Zm2.061,0.308l0.452,0.625c1.066,-2.926 2.02,-5.44 2.814,-8.027c-0.848,2.105 -1.903,4.448 -3.266,7.402Z" style="fill:#606c38;"/><path d="M123.459,77.412c-1.567,-7.485 -3.888,-16.273 -1.259,-32.455c0.325,10.186 1.579,24.431 2.915,32.215l-1.656,0.24Z" style="fill:#606c38;"/><path d="M122.48,77.617c-1.584,-7.57 -3.925,-16.456 -1.267,-32.82c0.082,-0.508 0.537,-0.871 1.051,-0.838c0.514,0.034 0.919,0.452 0.935,0.966c0.324,10.143 1.571,24.327 2.902,32.078c0.046,0.266 -0.018,0.539 -0.177,0.757c-0.158,0.218 -0.398,0.363 -0.665,0.402l-1.657,0.24c-0.523,0.075 -1.014,-0.268 -1.122,-0.785Zm0.855,-5.706l-1.323,-13.051c0.014,5.213 0.617,9.39 1.323,13.051Z" style="fill:#606c38;"/><path d="M125.681,77.19c-3.357,-2.427 -9.426,-9.25 -11.738,-18.265c4.667,8.585 5.632,8.584 12.299,15.232l-0.561,3.033Z" style="fill:#606c38;"/><path d="M125.447,77.515c-3.4,-2.458 -9.551,-9.362 -11.891,-18.49c-0.051,-0.196 0.053,-0.398 0.241,-0.472c0.188,-0.074 0.401,0.004 0.497,0.181c4.64,8.535 5.603,8.531 12.231,15.14c0.093,0.093 0.135,0.226 0.111,0.356l-0.561,3.033c-0.025,0.135 -0.118,0.248 -0.245,0.299c-0.127,0.051 -0.272,0.033 -0.383,-0.047Zm-0.041,-1.035l0.404,-2.189c-5.543,-5.515 -7.113,-6.425 -10.268,-11.725c2.597,6.625 6.995,11.643 9.864,13.914Z" style="fill:#606c38;"/></g><g id="Layer1"><path d="M1280,66.099l0,83.901l-1280,0l0,-60.758c109.675,-5.331 119.68,-14.382 285.887,-4.922c249.31,14.191 323.835,69.426 642.443,36.909c136.83,-13.965 292.451,-50.898 351.67,-55.13Z" style="fill:#606c38;"/><path d="M1288,66.099l0,83.901c0,4.418 -3.582,8 -8,8l-1280,0c-4.418,0 -8,-3.582 -8,-8l0,-60.758c0,-4.268 3.349,-7.784 7.612,-7.991c109.998,-5.346 120.033,-14.406 286.73,-4.918c248.821,14.163 323.193,69.39 641.176,36.937c136.923,-13.974 292.653,-50.916 351.912,-55.151c2.215,-0.158 4.396,0.611 6.022,2.125c1.625,1.513 2.548,3.634 2.548,5.855Zm-16,8.744c-64.576,6.743 -212.279,41.017 -342.857,54.344c-319.234,32.581 -393.911,-22.661 -643.711,-36.88c-161.789,-9.209 -175.131,-0.808 -277.432,4.541l-0,45.152l1264,0l-0,-67.157Z" style="fill:#606c38;"/></g></svg>