<?xml version="1.0" encoding="UTF-8" standalone="no"?><!DOCTYPE svg PUBLIC "-//W3C//DTD SVG 1.1//EN" "http://www.w3.org/Graphics/SVG/1.1/DTD/svg11.dtd"><svg width="100%" height="100%" viewBox="0 0 3414 400" version="1.1" xmlns="http://www.w3.org/2000/svg" xmlns:xlink="http://www.w3.org/1999/xlink" xml:space="preserve" xmlns:serif="http://www.serif.com/" style="fill-rule:evenodd;clip-rule:evenodd;stroke-linejoin:round;stroke-miterlimit:2;"><g id="Layer2"><path d="M1946.49,304.757c17.819,-41.168 26.917,-67.93 27.312,-126.72c5.035,82.358 0.712,87.966 -18.587,128.128l-8.725,-1.408Z" style="fill:#283618;"/><path d="M1946.32,305.811l8.723,1.408c0.466,0.074 0.928,-0.166 1.133,-0.592c19.376,-40.331 23.744,-45.958 18.691,-128.654c-0.038,-0.576 -0.52,-1.018 -1.096,-1.002c-0.574,0.016 -1.032,0.485 -1.038,1.058c-0.394,58.598 -9.464,85.272 -27.224,126.304c-0.13,0.302 -0.114,0.648 0.046,0.936c0.157,0.288 0.44,0.488 0.765,0.542Zm1.691,-1.888c14.802,-34.304 23.485,-58.832 26.058,-100.848c2.51,58.341 -2.693,67.021 -19.472,101.909l-6.586,-1.061Z" style="fill:#283618;"/><path d="M1962.76,340.491c-18.331,-46.107 -39.707,-98.512 -46.718,-204.894c10.811,68.307 37.912,153.238 55.387,201.512l-8.669,3.382Z" style="fill:#283618;"/><path d="M1963.14,341.483l8.672,-3.382c0.539,-0.21 0.811,-0.813 0.616,-1.357c-17.461,-48.224 -44.536,-133.072 -55.338,-201.312c-0.088,-0.563 -0.606,-0.957 -1.171,-0.893c-0.568,0.064 -0.984,0.56 -0.947,1.13c7.022,106.547 28.43,159.035 46.79,205.214c0.218,0.546 0.832,0.813 1.378,0.6Zm0.214,-2.371c-16.92,-42.544 -36.32,-90.723 -44.558,-181.861c12.374,63.445 35.574,135.76 51.272,179.242l-6.714,2.619Z" style="fill:#283618;"/><path d="M1966.03,343.691c-16.613,-17.904 -44.794,-66.048 -50.642,-125.976c19.13,58.664 24.437,59.277 56.037,106.674l-5.395,19.302Z" style="fill:#283618;"/><path d="M1967.06,343.976l5.394,-19.299c0.083,-0.301 0.032,-0.621 -0.141,-0.88c-31.525,-47.282 -36.827,-47.89 -55.912,-106.413c-0.168,-0.517 -0.701,-0.824 -1.232,-0.712c-0.533,0.112 -0.896,0.605 -0.845,1.147c5.88,60.229 34.226,108.605 50.925,126.597c0.264,0.283 0.659,0.4 1.035,0.309c0.373,-0.09 0.672,-0.376 0.776,-0.749Zm-1.536,-2.435c-15.643,-17.696 -40.182,-60.202 -47.808,-113.424c16.522,48.83 23.024,52.211 52.552,96.456l-4.744,16.968Z" style="fill:#283618;"/><path d="M2223.91,342.771c-16.614,-17.904 -43.28,-57.968 -49.128,-117.896c19.13,58.664 20.397,64.328 52,111.725l-2.872,6.171Z" style="fill:#283618;"/><path d="M2224.88,343.219l2.869,-6.171c0.157,-0.336 0.128,-0.731 -0.08,-1.04c-31.525,-47.285 -32.787,-52.939 -51.872,-111.464c-0.168,-0.517 -0.699,-0.824 -1.232,-0.712c-0.533,0.109 -0.896,0.605 -0.843,1.147c5.88,60.248 32.704,100.517 49.408,118.517c0.243,0.259 0.598,0.381 0.95,0.328c0.349,-0.056 0.65,-0.283 0.8,-0.605Zm-1.259,-2.35c-15.533,-17.192 -38.904,-52.88 -46.469,-105.282c16.01,49.104 19.016,56.992 48.41,101.104l-1.941,4.178Z" style="fill:#283618;"/><path d="M2210.78,297.496c-18.331,-46.107 -24.592,-33.485 -18.04,-129.387c3.437,80.166 9.232,77.731 26.709,126.006l-8.669,3.381Z" style="fill:#283618;"/><path d="M2211.16,298.475l8.672,-3.382c0.531,-0.205 0.8,-0.8 0.605,-1.338c-17.432,-48.152 -23.216,-45.723 -26.648,-125.691c-0.024,-0.557 -0.48,-1 -1.037,-1.008c-0.56,-0.005 -1.027,0.424 -1.064,0.981c-6.576,96.243 -0.285,83.576 18.112,129.846c0.213,0.538 0.821,0.802 1.36,0.592Zm0.208,-2.342c-16.701,-41.645 -23.144,-34.442 -18.76,-109.442c3.555,61.325 9.707,63.416 25.499,106.816l-6.739,2.626Z" style="fill:#283618;"/><path d="M2211.5,280.981c7.693,-23.181 27.48,-89.032 7.949,-145.989c6.92,61.312 1.149,83.109 -7.949,139.344l-0,6.645Z" style="fill:#283618;"/><path d="M2220.68,160.443l1.006,-14.176c12.493,49.106 -1.107,102.272 -9.054,127.706l1.624,-22.898c-1.178,7.093 -2.461,14.709 -3.816,23.09c-0.01,0.056 -0.013,0.112 -0.013,0.171l0,6.645c0,0.523 0.379,0.968 0.896,1.054c0.515,0.082 1.016,-0.222 1.181,-0.718c7.731,-23.29 27.571,-89.45 7.95,-146.672c-0.179,-0.514 -0.715,-0.813 -1.246,-0.696c-0.53,0.12 -0.885,0.622 -0.824,1.163c1.046,9.261 1.8,17.619 2.296,25.331Zm0,-0l-6.424,90.632c5.512,-33.214 8.72,-55.014 6.424,-90.632Z" style="fill:#283618;"/><path d="M2200.03,316.123c7.696,-23.182 20.768,-71.624 1.237,-128.582c6.92,61.312 2.347,64.075 -6.752,120.307l5.515,8.275Z" style="fill:#283618;"/><path d="M2201.05,316.459c7.736,-23.304 20.867,-72.006 1.235,-129.264c-0.179,-0.515 -0.715,-0.814 -1.245,-0.696c-0.531,0.12 -0.886,0.621 -0.824,1.162c6.904,61.166 2.33,63.918 -6.747,120.019c-0.043,0.264 0.016,0.536 0.165,0.76l5.518,8.275c0.224,0.338 0.624,0.52 1.029,0.466c0.403,-0.056 0.741,-0.336 0.869,-0.722Zm-1.341,-2.752l-4.067,-6.102c8.507,-52.464 13.027,-58.301 7.859,-109.333c14.152,50.499 3.421,93.152 -3.792,115.435Z" style="fill:#283618;"/><path d="M642.64,285.84c-24.405,-65.171 -24.424,-80.552 -32.059,-161.637c-1.656,89.754 8.787,116.352 24.864,172.629l7.195,-10.992Z" style="fill:#708f53;"/><path d="M643.627,285.464c-24.366,-65.059 -24.376,-80.413 -31.998,-161.36c-0.053,-0.563 -0.536,-0.987 -1.101,-0.965c-0.565,0.021 -1.016,0.48 -1.027,1.045c-1.658,89.915 8.8,116.563 24.904,172.941c0.115,0.4 0.454,0.699 0.867,0.76c0.411,0.064 0.821,-0.12 1.051,-0.469l7.197,-10.992c0.187,-0.285 0.224,-0.64 0.107,-0.96Zm-2.19,0.243l-5.624,8.589c-14.357,-50.043 -24.061,-76.923 -24.344,-148.931c5.886,63.28 7.976,81.539 29.968,140.342Z" style="fill:#708f53;"/><path d="M626.533,296.832c12.011,-40.328 13.582,-64.699 15.928,-120.568c-7.92,55.84 -11.378,78.472 -22.506,120.568l6.578,-0Z" style="fill:#708f53;"/><path d="M627.547,297.136c12.037,-40.416 13.621,-64.837 15.97,-120.829c0.024,-0.568 -0.402,-1.054 -0.968,-1.107c-0.565,-0.051 -1.072,0.349 -1.152,0.912c-7.912,55.787 -11.365,78.395 -22.48,120.448c-0.085,0.32 -0.016,0.661 0.184,0.923c0.203,0.261 0.515,0.416 0.846,0.416l6.578,-0c0.472,-0 0.888,-0.31 1.022,-0.763Zm-1.816,-1.371l-4.398,0c9.323,-35.45 13.203,-57.245 19.08,-97.714c-1.997,40.784 -4.576,63.57 -14.682,97.714Z" style="fill:#708f53;"/><path d="M630.587,276.128c12.688,-16.373 39.274,-60.645 39.701,-111.709c-11.741,50.994 -16.179,51.914 -39.301,94.333l-0.4,17.376Z" style="fill:#708f53;"/><path d="M631.413,276.781c12.758,-16.469 39.494,-60.997 39.923,-112.354c0.005,-0.544 -0.403,-1.003 -0.941,-1.067c-0.542,-0.064 -1.043,0.288 -1.166,0.819c-11.706,50.85 -16.138,51.765 -39.197,94.061c-0.083,0.149 -0.125,0.317 -0.131,0.488l-0.4,17.376c-0.008,0.461 0.278,0.875 0.712,1.029c0.432,0.155 0.918,0.014 1.2,-0.352Zm0.299,-3.946l0.317,-13.8c21.283,-39.022 26.72,-42.92 36.656,-83.331c-3.589,43.443 -24.816,80.507 -36.973,97.131Z" style="fill:#708f53;"/><path d="M549.413,293.016c12.011,-40.328 31.944,-88.445 19.184,-168.963c3.136,67.979 -15.637,124.667 -26.762,166.76l7.578,2.203Z" style="fill:#283618;"/><path d="M550.4,293.317c12.045,-40.44 32.011,-88.69 19.216,-169.426c-0.088,-0.552 -0.592,-0.942 -1.147,-0.883c-0.557,0.056 -0.97,0.536 -0.944,1.096c3.128,67.848 -15.624,124.427 -26.73,166.44c-0.147,0.552 0.176,1.12 0.725,1.28l7.579,2.203c0.554,0.162 1.138,-0.155 1.301,-0.71Zm-1.717,-1.602l-5.59,-1.624c10.134,-38.142 26.264,-88.091 26.867,-147.454c7.144,68.779 -10.227,112.246 -21.277,149.078Z" style="fill:#283618;"/><path d="M536.08,292.531c-8.245,-19.003 -26.083,-61.304 -13.877,-110.888c-1.224,52.314 1.453,58.458 13.378,105.274l0.499,5.614Z" style="fill:#283618;"/><path d="M531.147,265.243l-8.102,-56.944c-0.112,-7.48 -0.024,-16.123 0.222,-26.632c0.013,-0.544 -0.387,-1.011 -0.926,-1.08c-0.538,-0.072 -1.045,0.272 -1.176,0.8c-12.28,49.888 5.638,92.45 13.934,111.568c0.21,0.48 0.736,0.738 1.242,0.61c0.507,-0.13 0.846,-0.608 0.8,-1.128l-0.501,-5.616c-0.005,-0.056 -0.013,-0.112 -0.029,-0.168c-2.099,-8.242 -3.91,-15.221 -5.464,-21.41Z" style="fill:#283618;"/><path d="M565.547,272.045c-8.248,-19.002 -22.942,-58.941 -10.734,-108.525c-1.226,52.315 2.846,54.301 14.768,101.12l-4.034,7.405Z" style="fill:#283618;"/><path d="M566.48,272.555l4.035,-7.406c0.13,-0.234 0.165,-0.512 0.098,-0.773c-11.89,-46.685 -15.96,-48.664 -14.736,-100.832c0.011,-0.544 -0.386,-1.008 -0.928,-1.08c-0.538,-0.072 -1.045,0.272 -1.176,0.8c-12.282,49.896 2.494,90.085 10.792,109.205c0.163,0.374 0.523,0.622 0.931,0.64c0.405,0.019 0.789,-0.197 0.984,-0.554Zm-0.821,-2.95c-7.659,-18.08 -19.51,-52.37 -12.104,-94.92c-0.371,41.71 3.92,46.824 14.888,89.811l-2.784,5.109Z" style="fill:#283618;"/><path d="M746.427,298.896c-23.03,-65.669 -25.75,-77.656 -31.68,-158.885c-3.542,89.701 7.325,116.53 22.216,173.133l9.464,-14.248Z" style="fill:#283618;"/><path d="M748.933,298.013c-22.93,-65.384 -25.634,-77.32 -31.538,-158.194c-0.104,-1.414 -1.291,-2.496 -2.704,-2.472c-1.414,0.021 -2.566,1.146 -2.619,2.56c-3.557,90.104 7.344,117.058 22.301,173.917c0.267,1.016 1.107,1.779 2.142,1.952c1.037,0.171 2.077,-0.28 2.658,-1.155l9.464,-14.25c0.464,-0.696 0.574,-1.568 0.296,-2.358Zm-5.472,0.512l-5.45,8.206c-10.131,-37.92 -18.147,-62.99 -20.542,-106.403c4.256,34.024 10.451,53.845 25.992,98.197Z" style="fill:#283618;"/><path d="M744.533,289.984c8.856,-41.136 21.52,-89.344 12.451,-179.301c-3.581,56.285 -12.339,134.864 -20.179,177.69l7.728,1.611Z" style="fill:#283618;"/><path d="M747.147,290.547c8.898,-41.326 21.61,-89.758 12.498,-180.134c-0.141,-1.381 -1.314,-2.424 -2.704,-2.397c-1.386,0.024 -2.522,1.112 -2.61,2.496c-3.576,56.189 -12.315,134.629 -20.142,177.381c-0.258,1.424 0.664,2.798 2.08,3.091l7.726,1.611c1.437,0.301 2.842,-0.616 3.152,-2.048Zm-4.654,-3.712l-2.594,-0.542c6.165,-34.616 12.821,-90.416 17.048,-139.645c2.845,65.669 -6.947,105.648 -14.454,140.187Z" style="fill:#283618;"/><path d="M734.16,288.379c16.245,-12.851 46.101,-49.552 58.765,-99.022c-23.632,46.688 -28.16,46.518 -60.786,82.147l2.021,16.875Z" style="fill:#283618;"/><path d="M734.827,289.216c16.341,-12.928 46.397,-49.832 59.138,-99.595c0.134,-0.525 -0.149,-1.069 -0.658,-1.261c-0.51,-0.192 -1.08,0.029 -1.328,0.517c-23.566,46.555 -28.088,46.376 -60.622,81.907c-0.21,0.229 -0.309,0.539 -0.272,0.848l2.022,16.875c0.045,0.384 0.296,0.712 0.65,0.858c0.358,0.147 0.768,0.091 1.07,-0.149Zm0.165,-2.888l-1.731,-14.464c30.027,-32.76 36.174,-35.171 55.694,-72.443c-13.366,42.518 -38.747,74.158 -53.963,86.907Z" style="fill:#283618;"/><path d="M3085.36,210.688c-14.429,-31.211 -16.221,-36.936 -21.267,-75.939c-0.154,43.248 6.568,55.976 16.19,82.966l5.077,-7.027Z" style="fill:#606c38;"/><path d="M3087.78,209.571c-14.28,-30.894 -16.048,-36.56 -21.042,-75.166c-0.182,-1.392 -1.411,-2.405 -2.811,-2.317c-1.403,0.088 -2.496,1.248 -2.501,2.651c-0.155,43.717 6.618,56.589 16.344,83.872c0.333,0.933 1.157,1.605 2.136,1.744c0.981,0.141 1.957,-0.275 2.538,-1.078l5.078,-7.026c0.562,-0.782 0.661,-1.806 0.258,-2.68Zm-5.496,0.821l-1.205,1.667c-2.843,-7.803 -5.387,-14.507 -7.504,-21.406c2.261,5.614 5.075,11.862 8.709,19.739Z" style="fill:#283618;"/><path d="M3084.11,206.432c4.179,-19.96 10.368,-43.395 3.358,-86.547c-0.867,27.163 -4.211,65.15 -7.774,85.907l4.416,0.64Z" style="fill:#606c38;"/><path d="M3086.72,206.979c4.224,-20.187 10.467,-43.883 3.379,-87.52c-0.219,-1.355 -1.432,-2.323 -2.803,-2.235c-1.371,0.091 -2.451,1.205 -2.493,2.576c-0.864,27.048 -4.19,64.872 -7.739,85.541c-0.123,0.71 0.048,1.438 0.472,2.019c0.421,0.581 1.061,0.968 1.773,1.072l4.419,0.64c1.395,0.2 2.704,-0.715 2.992,-2.093Zm-2.28,-15.216l3.528,-34.803c-0.037,13.901 -1.645,25.04 -3.528,34.803Z" style="fill:#283618;"/><path d="M3078.18,205.84c8.952,-6.472 25.136,-24.667 31.301,-48.707c-12.445,22.894 -15.018,22.891 -32.797,40.619l1.496,8.088Z" style="fill:#283618;"/><path d="M3078.81,206.707c9.067,-6.555 25.469,-24.966 31.709,-49.307c0.136,-0.523 -0.141,-1.061 -0.642,-1.259c-0.502,-0.197 -1.07,0.011 -1.326,0.483c-12.373,22.76 -14.941,22.749 -32.616,40.373c-0.248,0.248 -0.36,0.603 -0.296,0.95l1.496,8.088c0.067,0.36 0.315,0.661 0.654,0.797c0.338,0.136 0.725,0.088 1.021,-0.125Zm0.109,-2.76l-1.077,-5.838c14.781,-14.706 18.968,-17.133 27.381,-31.266c-6.925,17.666 -18.653,31.048 -26.304,37.104Z" style="fill:#283618;"/></g><g id="Layer1"><path d="M0,176.264l0,223.736l3413.33,0l0,-162.021c-292.466,-14.216 -319.146,-38.352 -762.365,-13.126c-664.827,37.843 -863.56,185.136 -1713.18,98.424c-364.88,-37.24 -779.87,-135.728 -937.787,-147.013Z" style="fill:#283618;"/><path d="M-21.333,176.264l-0,223.736c-0,11.781 9.552,21.333 21.333,21.333l3413.33,0c11.782,0 21.334,-9.552 21.334,-21.333l-0,-162.021c-0,-11.382 -8.931,-20.758 -20.299,-21.31c-293.328,-14.256 -320.088,-38.416 -764.613,-13.114c-663.523,37.768 -861.848,185.04 -1709.8,98.498c-365.128,-37.264 -780.408,-135.776 -938.432,-147.069c-5.907,-0.421 -11.723,1.629 -16.059,5.667c-4.333,4.034 -6.794,9.69 -6.794,15.613Zm42.666,23.317c172.203,17.982 566.078,109.379 914.286,144.918c851.29,86.882 1050.43,-60.43 1716.56,-98.347c431.438,-24.557 467.016,-2.155 739.819,12.109l-0,120.406l-3370.67,-0l0,-179.086Z" style="fill:#283618;"/></g></svg>